<?xml version="1.0" encoding="utf-8"?>
<!-- Generator: Adobe Illustrator 21.0.0, SVG Export Plug-In . SVG Version: 6.00 Build 0)  -->
<svg version="1.1" id="Layer_1" xmlns="http://www.w3.org/2000/svg" xmlns:xlink="http://www.w3.org/1999/xlink" x="0px" y="0px"
	 viewBox="0 0 921 118" style="enable-background:new 0 0 921 118;" xml:space="preserve">
<style type="text/css">
	.st0{fill:#57C1E8;}
	.st1{fill:#FFFFFF;}
</style>
<g id="XMLID_1403_">
	<g id="XMLID_1428_">
		<path id="XMLID_1432_" class="st0" d="M118.1,48.5V0.2H0.2v48.9C43.5,65.9,74.7,31.6,118.1,48.5z"/>
		<path id="XMLID_1431_" class="st0" d="M0.2,70v48.2h117.9V69.3C74.7,52.4,43.5,86.7,0.2,70z"/>
	</g>
	<g id="XMLID_1404_">
		<path id="XMLID_1425_" class="st1" d="M843.4,102.6l-17.7-35.4c9.9-4.4,16-13.5,16-25c0-16.4-12.1-27.9-30.5-27.9h-35.8
			c-0.7,0-1.3,0.6-1.3,1.3v87.2c0,0.7,0.6,1.3,1.3,1.3h16.8c0.6,0,1-0.3,1.2-0.8V31.9l0.1,0.1v-0.1c0-0.5,0.3-0.8,0.8-0.8h15.8
			c7.4,0,12.1,4.4,12.1,11.1c0,6.9-4.8,11.2-12.1,11.2l-8.6,0c-1.4,0-2.3,1.4-1.7,2.7l21.9,46.8c0.4,0.9,0.8,1.3,2,1.3h18.7
			C843.4,104.2,843.8,103.4,843.4,102.6"/>
		<path id="XMLID_1422_" class="st1" d="M484,102.6l-17.7-35.4c9.9-4.4,16-13.5,16-25c0-16.4-12.1-27.9-30.5-27.9H416
			c-0.7,0-1.3,0.6-1.3,1.3v87.2c0,0.7,0.6,1.3,1.3,1.3h16.8c0.6,0,1-0.3,1.2-0.8V31.9l0.1,0.1v-0.1c0-0.5,0.3-0.8,0.8-0.8h15.8
			c7.4,0,12.1,4.4,12.1,11.1c0,6.9-4.8,11.2-12.1,11.2l-8.6,0c-1.4,0-2.3,1.4-1.7,2.7l21.9,46.8c0.4,0.9,0.8,1.3,2,1.3h18.7
			C484,104.2,484.4,103.4,484,102.6"/>
		<path id="XMLID_1420_" class="st1" d="M173.8,71.1V15.6c0-0.8,0.5-1.3,1.3-1.3h16.8c0.8,0,1.3,0.5,1.3,1.3v56.1
			c0,10.7,5.9,16.8,15.1,16.8c9,0,14.9-6.1,14.9-16.8V15.6c0-0.8,0.5-1.3,1.3-1.3h16.8c0.8,0,1.3,0.5,1.3,1.3v55.5
			c0,22.3-14.3,34.5-34.3,34.5C188,105.6,173.8,93.5,173.8,71.1z"/>
		<path id="XMLID_1418_" class="st1" d="M265.2,15.6c0-0.8,0.5-1.3,1.3-1.3h16.8c0.8,0,1.3,0.5,1.3,1.3v70.5c0,0.5,0.3,0.8,0.8,0.8
			h39.6c0.8,0,1.3,0.5,1.3,1.3v14.7c0,0.8-0.5,1.3-1.3,1.3h-58.5c-0.8,0-1.3-0.5-1.3-1.3V15.6z"/>
		<path id="XMLID_1416_" class="st1" d="M354.2,104.2c-0.8,0-1.3-0.5-1.3-1.3V32.4c0-0.5-0.3-0.8-0.8-0.8h-22.7
			c-0.8,0-1.3-0.5-1.3-1.3V15.6c0-0.8,0.5-1.3,1.3-1.3h66.4c0.8,0,1.3,0.5,1.3,1.3v14.7c0,0.8-0.5,1.3-1.3,1.3h-22.7
			c-0.5,0-0.8,0.3-0.8,0.8v70.5c0,0.8-0.5,1.3-1.3,1.3H354.2z"/>
		<path id="XMLID_1413_" class="st1" d="M530.5,15.6c0.3-0.8,0.8-1.3,1.7-1.3h16.6c0.9,0,1.5,0.5,1.7,1.3l30.4,87.3
			c0.3,0.8,0,1.3-0.9,1.3h-17.2c-0.9,0-1.5-0.4-1.7-1.3L556,87.1h-31.4l-5,15.7c-0.3,0.9-0.8,1.3-1.7,1.3h-17.3
			c-0.9,0-1.2-0.5-0.9-1.3L530.5,15.6z M550.7,70.6l-10.2-31.5h-0.4L530,70.6H550.7z"/>
		<path id="XMLID_1410_" class="st1" d="M599.7,104.2c-0.8,0-1.3-0.5-1.3-1.3V15.6c0-0.8,0.5-1.3,1.3-1.3h34.9
			c19.5,0,31.3,11.8,31.3,29c0,16.9-11.9,28.8-31.3,28.8h-16c-0.5,0-0.8,0.3-0.8,0.8v30c0,0.8-0.5,1.3-1.3,1.3H599.7z M646.5,43.2
			c0-7.3-4.9-12.2-13.1-12.2h-14.8c-0.5,0-0.8,0.3-0.8,0.8v22.6c0,0.5,0.3,0.8,0.8,0.8h14.8C641.6,55.2,646.5,50.5,646.5,43.2z"/>
		<path id="XMLID_1407_" class="st1" d="M685.5,83.8c-2-6.2-2.5-11.2-2.5-24.6c0-13.4,0.5-18.4,2.5-24.6c4.6-14.5,17-21.8,32.8-21.8
			c15.7,0,28.1,7.3,32.8,21.8c2,6.2,2.5,11.2,2.5,24.6c0,13.4-0.5,18.4-2.5,24.6c-4.6,14.5-17,21.8-32.8,21.8
			C702.5,105.6,690.1,98.4,685.5,83.8z M732.4,78.5c1.1-3.2,1.5-7.5,1.5-19.3c0-11.8-0.4-16.1-1.5-19.3c-2-6.2-6.7-9.9-14.1-9.9
			s-12.1,3.7-14.1,9.9c-1.1,3.2-1.5,7.5-1.5,19.3c0,11.8,0.4,16.1,1.5,19.3c2,6.2,6.7,9.9,14.1,9.9S730.4,84.7,732.4,78.5z"/>
		<path id="XMLID_1405_" class="st1" d="M878.3,104.2c-0.8,0-1.3-0.5-1.3-1.3V32.4c0-0.5-0.3-0.8-0.8-0.8h-22.7
			c-0.8,0-1.3-0.5-1.3-1.3V15.6c0-0.8,0.5-1.3,1.3-1.3h66.4c0.8,0,1.3,0.5,1.3,1.3v14.7c0,0.8-0.5,1.3-1.3,1.3h-22.7
			c-0.5,0-0.8,0.3-0.8,0.8v70.5c0,0.8-0.5,1.3-1.3,1.3H878.3z"/>
	</g>
</g>
</svg>
